<svg width="200" height="216" viewBox="0 0 200 216" fill="none" xmlns="http://www.w3.org/2000/svg">
<path d="M181.603 166.66L110 208C103.812 211.573 96.188 211.573 90 208L18.3975 166.66C12.2094 163.088 8.39746 156.485 8.39746 149.34V66.6602C8.39746 59.5149 12.2094 52.9124 18.3975 49.3397L90 8C96.188 4.42734 103.812 4.42735 110 8L181.603 49.3398C187.791 52.9124 191.603 59.515 191.603 66.6603V149.34C191.603 156.485 187.791 163.088 181.603 166.66Z" fill="#333333" stroke="white" stroke-width="10"/>
<path d="M100 170.222V45.4995" stroke="white" stroke-width="10" stroke-linecap="round"/>
<path d="M155 78L53.8731 133.16C49.8749 135.341 45 132.447 45 127.893V88.1073C45 83.5529 49.8749 80.659 53.8731 82.8399L155 138" stroke="white" stroke-width="10" stroke-linecap="round"/>
</svg>
