<svg width="25" height="30" viewBox="0 0 25 30" fill="none" xmlns="http://www.w3.org/2000/svg">
<rect y="2.85714" width="24.2857" height="27.1429" fill="#C4C4C4"/>
<rect x="4.28571" y="14.2857" width="2.85714" height="2.85714" fill="white"/>
<rect x="4.28571" y="18.5714" width="2.85714" height="2.85714" fill="white"/>
<rect x="4.28571" y="22.8571" width="2.85714" height="2.85714" fill="white"/>
<rect x="8.57143" y="14.2857" width="2.85714" height="2.85714" fill="white"/>
<rect x="8.57143" y="18.5714" width="2.85714" height="2.85714" fill="white"/>
<rect x="8.57143" y="22.8571" width="2.85714" height="2.85714" fill="white"/>
<rect x="12.8571" y="14.2857" width="2.85714" height="2.85714" fill="white"/>
<rect x="12.8571" y="18.5714" width="2.85714" height="2.85714" fill="white"/>
<rect x="12.8571" y="22.8571" width="2.85714" height="2.85714" fill="white"/>
<rect x="17.1429" y="14.2857" width="2.85714" height="2.85714" fill="white"/>
<rect x="17.1429" y="18.5714" width="2.85714" height="2.85714" fill="white"/>
<rect x="17.1429" y="22.8571" width="2.85714" height="2.85714" fill="white"/>
<rect x="4.28571" width="4.28571" height="10" fill="white"/>
<rect x="15.7143" width="4.28571" height="10" fill="white"/>
<rect x="5.71429" y="1.42857" width="1.42857" height="4.28571" fill="#C4C4C4"/>
<rect x="5.71429" y="7.14286" width="1.42857" height="1.42857" fill="#C4C4C4"/>
<rect x="17.1429" y="7.14286" width="1.42857" height="1.42857" fill="#C4C4C4"/>
<rect x="17.1429" y="1.42857" width="1.42857" height="4.28571" fill="#C4C4C4"/>
</svg>
